<svg width="22" height="22" viewBox="0 0 22 22" fill="none" xmlns="http://www.w3.org/2000/svg">
<path d="M4.82778 21.45C4.25639 21.45 3.76707 21.2464 3.35983 20.8391C2.95258 20.4319 2.74931 19.9429 2.75 19.3722V12.1C2.75 10.8014 2.99691 9.58485 3.49073 8.45038C3.98455 7.31592 4.65082 6.32897 5.48955 5.48955C6.32967 4.65013 7.31661 3.98385 8.45038 3.49073C9.58416 2.9976 10.8007 2.75069 12.1 2.75C13.3986 2.75 14.6151 2.99691 15.7496 3.49073C16.8841 3.98455 17.871 4.65082 18.7105 5.48955C19.5499 6.32966 20.2165 7.31661 20.7103 8.45038C21.2041 9.58416 21.4507 10.8007 21.45 12.1V19.3722C21.45 19.9436 21.2464 20.4329 20.8391 20.8402C20.4319 21.2474 19.9429 21.4507 19.3722 21.45H17.2944C16.7231 21.45 16.2337 21.2464 15.8265 20.8391C15.4192 20.4319 15.216 19.9429 15.2167 19.3722V15.2167C15.2167 14.6453 15.4203 14.156 15.8275 13.7487C16.2348 13.3415 16.7237 13.1382 17.2944 13.1389H19.3722V12.1C19.3722 10.0742 18.6665 8.3555 17.255 6.94399C15.8435 5.53249 14.1251 4.82709 12.1 4.82778C10.0742 4.82778 8.3555 5.53353 6.944 6.94503C5.53249 8.35654 4.82709 10.0749 4.82778 12.1V13.1389H6.90556C7.47695 13.1389 7.96626 13.3425 8.37351 13.7498C8.78075 14.157 8.98403 14.646 8.98333 15.2167V19.3722C8.98333 19.9436 8.77971 20.4329 8.37247 20.8402C7.96522 21.2474 7.47625 21.4507 6.90556 21.45H4.82778ZM4.82778 19.3722H6.90556V15.2167H4.82778V19.3722ZM17.2944 19.3722H19.3722V15.2167H17.2944V19.3722Z" fill="#326BFF"/>
</svg>
