<svg width="20" height="23" viewBox="0 0 20 23" fill="none" xmlns="http://www.w3.org/2000/svg">
<path d="M17.1932 15.6819C16.751 14.8496 16.094 12.5023 16.094 9.44922C16.094 7.68154 15.452 5.98626 14.3092 4.73632C13.1664 3.48639 11.6164 2.78418 10.0002 2.78418C8.38407 2.78418 6.8341 3.48639 5.6913 4.73632C4.5485 5.98626 3.90648 7.68154 3.90648 9.44922C3.90648 12.5032 3.24867 14.8496 2.80648 15.6819C2.70946 15.8636 2.65798 16.0701 2.65723 16.2805C2.65649 16.4909 2.7065 16.6978 2.80222 16.8804C2.89795 17.0629 3.036 17.2146 3.20245 17.3201C3.36889 17.4257 3.55784 17.4813 3.75023 17.4814H7.06898C7.18284 18.2415 7.53998 18.9325 8.07663 19.4311C8.61329 19.9298 9.29452 20.2035 9.99867 20.2035C10.7028 20.2035 11.3841 19.9298 11.9207 19.4311C12.4574 18.9325 12.8145 18.2415 12.9284 17.4814H16.2502C16.4425 17.481 16.6312 17.4251 16.7975 17.3195C16.9637 17.2138 17.1015 17.0621 17.1971 16.8796C17.2926 16.6972 17.3425 16.4904 17.3417 16.2801C17.3409 16.0698 17.2894 15.8635 17.1924 15.6819H17.1932ZM10.0002 19.1904C9.54313 19.1903 9.09943 19.0215 8.7409 18.7114C8.38236 18.4012 8.12994 17.9679 8.02445 17.4814H11.976C11.8705 17.9679 11.6181 18.4012 11.2596 18.7114C10.901 19.0215 10.4573 19.1903 10.0002 19.1904ZM16.3838 16.3706C16.371 16.3968 16.3518 16.4186 16.3284 16.4337C16.3049 16.4487 16.2782 16.4565 16.251 16.4561H3.75023C3.72307 16.4565 3.69631 16.4487 3.6729 16.4337C3.64948 16.4186 3.63029 16.3968 3.61742 16.3706C3.60371 16.3446 3.59649 16.3152 3.59649 16.2852C3.59649 16.2552 3.60371 16.2257 3.61742 16.1997C4.20883 15.0889 4.84398 12.4989 4.84398 9.44922C4.84398 7.95349 5.38723 6.51902 6.35421 5.46139C7.3212 4.40375 8.63271 3.80957 10.0002 3.80957C11.3678 3.80957 12.6793 4.40375 13.6463 5.46139C14.6132 6.51902 15.1565 7.95349 15.1565 9.44922C15.1565 12.498 15.7924 15.0846 16.3838 16.1997C16.3975 16.2257 16.4048 16.2552 16.4048 16.2852C16.4048 16.3152 16.3975 16.3446 16.3838 16.3706Z" fill="black"/>
</svg>
