<svg width="22" height="21" viewBox="0 0 22 21" fill="none" xmlns="http://www.w3.org/2000/svg">
<path d="M11.7242 18.3748L2.75 9.80859V11.5586C2.75 12.0223 2.9425 12.4686 3.29083 12.7923L10.4317 19.6086C11.1467 20.2911 12.3108 20.2911 13.0258 19.6086L18.7183 14.1748C19.4333 13.4923 19.4333 12.3811 18.7183 11.6986L11.7242 18.3748Z" fill="#326BFF"/>
<path d="M10.4317 15.2337C10.7892 15.575 11.2567 15.75 11.7242 15.75C12.1917 15.75 12.6592 15.575 13.0167 15.2337L18.7092 9.8C19.4242 9.1175 19.4242 8.00625 18.7092 7.32375L11.5683 0.5075C11.2292 0.18375 10.7617 0 10.2758 0H4.58333C3.575 0 2.75 0.7875 2.75 1.75V7.18375C2.75 7.6475 2.9425 8.09375 3.29083 8.4175L10.4317 15.2337ZM4.58333 1.75H10.2758L17.4167 8.56625L11.7242 14L4.58333 7.18375V1.75Z" fill="#326BFF"/>
<path d="M6.64583 4.8125C7.27866 4.8125 7.79167 4.32281 7.79167 3.71875C7.79167 3.11469 7.27866 2.625 6.64583 2.625C6.01301 2.625 5.5 3.11469 5.5 3.71875C5.5 4.32281 6.01301 4.8125 6.64583 4.8125Z" fill="#326BFF"/>
</svg>
