<svg width="22" height="22" viewBox="0 0 22 22" fill="none" xmlns="http://www.w3.org/2000/svg">
<path d="M4.46559 20.1665C3.51234 20.1665 2.69827 19.797 2.02337 19.0579C1.34847 18.3188 0.994813 17.4251 0.962402 16.3767C0.962402 16.222 0.970346 16.0673 0.986234 15.9126C1.00212 15.7579 1.02595 15.6032 1.05773 15.4485L3.05955 6.78604C3.28197 5.85791 3.73477 5.10579 4.41793 4.52966C5.10109 3.95354 5.87958 3.66582 6.75339 3.66651H16.0476C16.9214 3.66651 17.6999 3.95457 18.383 4.53069C19.0662 5.10682 19.519 5.8586 19.7414 6.78604L21.7432 15.4485C21.775 15.6032 21.803 15.7624 21.8271 15.926C21.8513 16.0896 21.863 16.2484 21.8624 16.4024C21.8624 17.4509 21.5167 18.3405 20.8252 19.0713C20.1338 19.8021 19.3042 20.1672 18.3363 20.1665C17.669 20.1665 17.0494 19.9774 16.4775 19.5993C15.9055 19.2212 15.4766 18.7056 15.1906 18.0524L14.5233 16.5571C14.4439 16.3853 14.3247 16.2563 14.1658 16.1704C14.007 16.0845 13.8398 16.0415 13.6644 16.0415H9.13651C8.96175 16.0415 8.79493 16.0845 8.63605 16.1704C8.47718 16.2563 8.35802 16.3853 8.27859 16.5571L7.61131 18.0524C7.32534 18.7056 6.89638 19.2212 6.32443 19.5993C5.75248 19.9774 5.13287 20.1665 4.46559 20.1665ZM4.53709 18.104C4.83895 18.104 5.11316 18.0181 5.35974 17.8462C5.60631 17.6743 5.79283 17.4423 5.9193 17.1501L6.58657 15.6806C6.82488 15.1478 7.17441 14.7308 7.63514 14.4297C8.09588 14.1285 8.59634 13.9783 9.13651 13.979H13.6644C14.2046 13.979 14.7051 14.1337 15.1658 14.4431C15.6265 14.7524 15.984 15.1649 16.2382 15.6806L16.9055 17.1501C17.0326 17.4423 17.2194 17.6743 17.466 17.8462C17.7126 18.0181 17.9865 18.104 18.2877 18.104C18.7325 18.104 19.1138 17.9448 19.4316 17.6265C19.7493 17.3082 19.9162 16.9088 19.9321 16.4282C19.9321 16.4454 19.9162 16.2821 19.8844 15.9384L17.8826 7.30166C17.7714 6.8376 17.5489 6.45947 17.2153 6.16729C16.8817 5.8751 16.4924 5.729 16.0476 5.729H6.75339C6.30854 5.729 5.91516 5.8751 5.57327 6.16729C5.23137 6.45947 5.01307 6.8376 4.91838 7.30166L2.91656 15.9384C2.88479 16.0415 2.8689 16.1962 2.8689 16.4024C2.8689 16.8837 3.03191 17.2876 3.35792 17.6142C3.68393 17.9407 4.07698 18.104 4.53709 18.104ZM12.8303 10.8853C13.1004 10.8853 13.327 10.7863 13.51 10.5883C13.693 10.3903 13.7842 10.1455 13.7836 9.854C13.7836 9.56182 13.6921 9.31672 13.5091 9.11872C13.326 8.92072 13.0998 8.82207 12.8303 8.82275C12.5603 8.82275 12.3337 8.92175 12.1507 9.11975C11.9677 9.31775 11.8765 9.5625 11.8771 9.854C11.8771 10.1462 11.9686 10.3913 12.1516 10.5893C12.3347 10.7873 12.5609 10.8859 12.8303 10.8853ZM14.7368 8.82275C15.0069 8.82275 15.2335 8.72375 15.4165 8.52575C15.5995 8.32775 15.6907 8.083 15.6901 7.7915C15.6901 7.49932 15.5986 7.25422 15.4156 7.05622C15.2325 6.85822 15.0063 6.75957 14.7368 6.76025C14.4668 6.76025 14.2402 6.85925 14.0572 7.05725C13.8742 7.25525 13.783 7.5 13.7836 7.7915C13.7836 8.08369 13.8751 8.32879 14.0581 8.52679C14.2412 8.72479 14.4674 8.82344 14.7368 8.82275ZM14.7368 12.9478C15.0069 12.9478 15.2335 12.8488 15.4165 12.6508C15.5995 12.4528 15.6907 12.208 15.6901 11.9165C15.6901 11.6243 15.5986 11.3792 15.4156 11.1812C15.2325 10.9832 15.0063 10.8846 14.7368 10.8853C14.4668 10.8853 14.2402 10.9843 14.0572 11.1823C13.8742 11.3803 13.783 11.625 13.7836 11.9165C13.7836 12.2087 13.8751 12.4538 14.0581 12.6518C14.2412 12.8498 14.4674 12.9484 14.7368 12.9478ZM16.6433 10.8853C16.9134 10.8853 17.14 10.7863 17.323 10.5883C17.506 10.3903 17.5972 10.1455 17.5966 9.854C17.5966 9.56182 17.5051 9.31672 17.3221 9.11872C17.139 8.92072 16.9128 8.82207 16.6433 8.82275C16.3733 8.82275 16.1467 8.92175 15.9637 9.11975C15.7807 9.31775 15.6895 9.5625 15.6901 9.854C15.6901 10.1462 15.7816 10.3913 15.9646 10.5893C16.1477 10.7873 16.3739 10.8859 16.6433 10.8853ZM8.06411 12.4321C8.27064 12.4321 8.44127 12.3589 8.576 12.2125C8.71072 12.066 8.77841 11.8814 8.77904 11.6587V10.6274H9.73229C9.93883 10.6274 10.1095 10.5542 10.2442 10.4078C10.3789 10.2613 10.4466 10.0768 10.4472 9.854C10.4472 9.63057 10.3795 9.44597 10.2442 9.30022C10.1088 9.15447 9.93819 9.08125 9.73229 9.08057H8.77904V8.04932C8.77904 7.82588 8.71136 7.64129 8.576 7.49554C8.44064 7.34979 8.27001 7.27657 8.06411 7.27588C7.85757 7.27588 7.68694 7.3491 7.55221 7.49554C7.41748 7.64197 7.3498 7.82657 7.34917 8.04932V9.08057H6.39592C6.18938 9.08057 6.01875 9.15379 5.88403 9.30022C5.7493 9.44666 5.68162 9.63125 5.68098 9.854C5.68098 10.0774 5.74866 10.262 5.88403 10.4078C6.01939 10.5535 6.19002 10.6268 6.39592 10.6274H7.34917V11.6587C7.34917 11.8821 7.41685 12.0667 7.55221 12.2125C7.68757 12.3582 7.8582 12.4314 8.06411 12.4321Z" fill="#326BFF"/>
</svg>
