<svg width="25" height="25" viewBox="0 0 25 25" fill="none" xmlns="http://www.w3.org/2000/svg">
<path d="M18.4851 3.32031C16.2896 3.32031 14.3806 4.27726 13.2578 5.88093C12.135 4.27726 10.226 3.32031 8.03054 3.32031C6.3675 3.32218 4.77314 3.96157 3.59719 5.0982C2.42125 6.23484 1.75975 7.7759 1.75781 9.38335C1.75781 12.334 3.66054 15.4049 7.41372 18.5092C9.13355 19.9257 10.9913 21.1779 12.9609 22.2481C13.0522 22.2955 13.1542 22.3203 13.2578 22.3203C13.3614 22.3203 13.4634 22.2955 13.5547 22.2481C15.5243 21.1779 17.3821 19.9257 19.1019 18.5092C22.8551 15.4049 24.7578 12.334 24.7578 9.38335C24.7559 7.7759 24.0944 6.23484 22.9184 5.0982C21.7425 3.96157 20.1481 3.32218 18.4851 3.32031ZM13.2578 21.0153C11.5422 20.0583 3.01236 15.0139 3.01236 9.38335C3.01374 8.09734 3.54289 6.8644 4.48368 5.95505C5.42447 5.04571 6.70006 4.53426 8.03054 4.53292C10.1507 4.53292 11.9311 5.6273 12.6776 7.38962C12.7248 7.50082 12.8052 7.59593 12.9086 7.66287C13.0119 7.72981 13.1334 7.76555 13.2578 7.76555C13.3822 7.76555 13.5038 7.72981 13.6071 7.66287C13.7104 7.59593 13.7908 7.50082 13.838 7.38962C14.5845 5.6273 16.3649 4.53292 18.4851 4.53292C19.8156 4.53426 21.0912 5.04571 22.0319 5.95505C22.9727 6.8644 23.5019 8.09734 23.5033 9.38335C23.5033 15.0139 14.9734 20.0583 13.2578 21.0153Z" fill="#777777"/>
</svg>
