<svg width="20" height="20" viewBox="0 0 20 20" fill="none" xmlns="http://www.w3.org/2000/svg">
<path d="M5.00016 1.6665H12.5002C12.9422 1.6665 13.3661 1.8421 13.6787 2.15466C13.9912 2.46722 14.1668 2.89114 14.1668 3.33317V4.1665C14.1668 4.38752 14.079 4.59948 13.9228 4.75576C13.7665 4.91204 13.5545 4.99984 13.3335 4.99984C13.1125 4.99984 12.9005 4.91204 12.7442 4.75576C12.588 4.59948 12.5002 4.38752 12.5002 4.1665V3.33317H5.00016V16.6665H12.5002V15.8332C12.5002 15.6122 12.588 15.4002 12.7442 15.2439C12.9005 15.0876 13.1125 14.9998 13.3335 14.9998C13.5545 14.9998 13.7665 15.0876 13.9228 15.2439C14.079 15.4002 14.1668 15.6122 14.1668 15.8332V16.6665C14.1668 17.1085 13.9912 17.5325 13.6787 17.845C13.3661 18.1576 12.9422 18.3332 12.5002 18.3332H5.00016C4.55814 18.3332 4.13421 18.1576 3.82165 17.845C3.50909 17.5325 3.3335 17.1085 3.3335 16.6665V3.33317C3.3335 2.89114 3.50909 2.46722 3.82165 2.15466C4.13421 1.8421 4.55814 1.6665 5.00016 1.6665Z" fill="#403F3F"/>
<path d="M13.9958 13.5793C14.3208 13.9043 14.8458 13.9043 15.1708 13.5793L18.1608 10.5893C18.3171 10.433 18.4048 10.2211 18.4048 10.0001C18.4048 9.77913 18.3171 9.56721 18.1608 9.41094L15.1708 6.42094C15.0124 6.27777 14.8051 6.20093 14.5916 6.20632C14.3782 6.21171 14.1749 6.29891 14.024 6.44989C13.873 6.60087 13.7858 6.80409 13.7804 7.01755C13.775 7.231 13.8518 7.43836 13.995 7.59677L15.5583 9.16677H8.33333C8.11232 9.16677 7.90036 9.25457 7.74408 9.41085C7.5878 9.56713 7.5 9.77909 7.5 10.0001C7.5 10.2211 7.5878 10.4331 7.74408 10.5894C7.90036 10.7456 8.11232 10.8334 8.33333 10.8334H15.5583L13.995 12.4034C13.8394 12.5596 13.7522 12.7711 13.7523 12.9915C13.7525 13.212 13.8401 13.4233 13.9958 13.5793Z" fill="#403F3F"/>
</svg>
