<svg width="40" height="32" viewBox="0 0 40 32" fill="none" xmlns="http://www.w3.org/2000/svg">
<g clip-path="url(#clip0_110_107)">
<path d="M7.27181 30.939V28.8811C7.27181 28.092 6.79149 27.5776 5.96821 27.5776C5.55665 27.5776 5.11071 27.7148 4.80196 28.1607C4.56196 27.7834 4.21899 27.5776 3.70446 27.5776C3.36134 27.5776 3.01853 27.6804 2.74399 28.0578V27.6462H2.02368V30.939H2.74399V29.1211C2.74399 28.5381 3.05274 28.2636 3.53306 28.2636C4.01306 28.2636 4.25337 28.5723 4.25337 29.1211V30.939H4.97368V29.1211C4.97368 28.5381 5.31649 28.2636 5.76243 28.2636C6.24274 28.2636 6.48274 28.5723 6.48274 29.1211V30.939H7.27181ZM17.9391 27.6462H16.7731V26.6515H16.0527V27.6462H15.401V28.2978H16.0526V29.8071C16.0526 30.5618 16.3613 31.0076 17.1846 31.0076C17.4934 31.0076 17.8362 30.9048 18.0765 30.7676L17.8706 30.1501C17.6648 30.2873 17.4248 30.3217 17.2532 30.3217C16.9102 30.3217 16.7731 30.1159 16.7731 29.7728V28.2978H17.9391V27.6462ZM24.0448 27.5775C23.6332 27.5775 23.3588 27.7834 23.1873 28.0578V27.6462H22.467V30.939H23.1873V29.0868C23.1873 28.5381 23.4273 28.2293 23.8732 28.2293C24.0104 28.2293 24.182 28.2637 24.3192 28.2979L24.5249 27.612C24.3877 27.5776 24.182 27.5776 24.0448 27.5776V27.5775ZM14.8179 27.9206C14.4748 27.6804 13.9946 27.5776 13.4801 27.5776C12.657 27.5776 12.1082 27.9892 12.1082 28.6409C12.1082 29.1898 12.5198 29.4984 13.2401 29.6014L13.5831 29.6357C13.9604 29.7042 14.1662 29.8071 14.1662 29.9787C14.1662 30.2187 13.8918 30.3903 13.4115 30.3903C12.9313 30.3903 12.554 30.2187 12.3138 30.0473L11.9709 30.5961C12.3482 30.8704 12.8627 31.0076 13.3771 31.0076C14.3376 31.0076 14.8865 30.5618 14.8865 29.9443C14.8865 29.3612 14.4406 29.0525 13.7545 28.9496L13.4115 28.9153C13.1027 28.8809 12.8627 28.8125 12.8627 28.6067C12.8627 28.3665 13.1027 28.2293 13.4801 28.2293C13.8918 28.2293 14.3034 28.4007 14.5091 28.5037L14.8179 27.9206ZM33.9577 27.5776C33.546 27.5776 33.2717 27.7834 33.1001 28.0578V27.6462H32.3798V30.939H33.1001V29.0868C33.1001 28.5381 33.3402 28.2293 33.786 28.2293C33.9234 28.2293 34.0949 28.2637 34.2321 28.2979L34.4379 27.612C34.3007 27.5776 34.0949 27.5776 33.9577 27.5776ZM24.7651 29.2926C24.7651 30.2873 25.451 31.0076 26.5145 31.0076C26.9946 31.0076 27.3376 30.9048 27.6806 30.6304L27.3376 30.0473C27.0632 30.2531 26.7888 30.3559 26.4801 30.3559C25.897 30.3559 25.4854 29.9443 25.4854 29.2926C25.4854 28.6753 25.897 28.2636 26.4801 28.2293C26.7888 28.2293 27.0632 28.3321 27.3376 28.5381L27.6806 27.955C27.3376 27.6804 26.9946 27.5776 26.5145 27.5776C25.451 27.5776 24.7651 28.2979 24.7651 29.2926ZM31.4195 29.2926V27.6462H30.6992V28.0578C30.459 27.7492 30.116 27.5776 29.6701 27.5776C28.744 27.5776 28.0237 28.2979 28.0237 29.2926C28.0237 30.2873 28.744 31.0076 29.6701 31.0076C30.1502 31.0076 30.4934 30.8362 30.6992 30.5275V30.939H31.4195V29.2926ZM28.7782 29.2926C28.7782 28.7095 29.1556 28.2293 29.7729 28.2293C30.356 28.2293 30.7677 28.6753 30.7677 29.2926C30.7677 29.8757 30.356 30.3559 29.7729 30.3559C29.1556 30.3215 28.7782 29.8757 28.7782 29.2926ZM20.1688 27.5776C19.2084 27.5776 18.5223 28.2636 18.5223 29.2926C18.5223 30.3217 19.2082 31.0076 20.2031 31.0076C20.6832 31.0076 21.1635 30.8704 21.5409 30.5618L21.1977 30.0473C20.9234 30.2531 20.5804 30.3903 20.2374 30.3903C19.7915 30.3903 19.3456 30.1845 19.2426 29.6012H21.6781V29.327C21.7124 28.2636 21.0951 27.5776 20.1688 27.5776ZM20.1688 28.195C20.6146 28.195 20.9235 28.4695 20.992 28.984H19.277C19.3456 28.5381 19.6543 28.195 20.1688 28.195ZM38.0395 29.2926V26.3428H37.3192V28.0578C37.079 27.7492 36.736 27.5776 36.2901 27.5776C35.364 27.5776 34.6437 28.2979 34.6437 29.2926C34.6437 30.2873 35.364 31.0076 36.2901 31.0076C36.7704 31.0076 37.1134 30.8362 37.3192 30.5275V30.939H38.0395V29.2926ZM35.3984 29.2926C35.3984 28.7095 35.7756 28.2293 36.3931 28.2293C36.9762 28.2293 37.3877 28.6753 37.3877 29.2926C37.3877 29.8757 36.9762 30.3559 36.3931 30.3559C35.7756 30.3215 35.3984 29.8757 35.3984 29.2926ZM11.3192 29.2926V27.6462H10.5988V28.0578C10.3587 27.7492 10.0157 27.5776 9.56978 27.5776C8.64368 27.5776 7.92337 28.2979 7.92337 29.2926C7.92337 30.2873 8.64368 31.0076 9.56978 31.0076C10.0501 31.0076 10.3931 30.8362 10.5988 30.5275V30.939H11.3192V29.2926ZM8.64368 29.2926C8.64368 28.7095 9.02103 28.2293 9.63837 28.2293C10.2215 28.2293 10.6332 28.6753 10.6332 29.2926C10.6332 29.8757 10.2215 30.3559 9.63837 30.3559C9.02103 30.3215 8.64368 29.8757 8.64368 29.2926Z" fill="black"/>
<path d="M14.5779 2.64111H25.3826V22.0553H14.5779V2.64111Z" fill="#FF5F00"/>
<path d="M15.2639 12.3483C15.2639 8.40375 17.1161 4.905 19.963 2.64109C17.8708 0.994688 15.2297 0 12.3484 0C5.52234 0 0 5.52234 0 12.3483C0 19.1741 5.52234 24.6966 12.3483 24.6966C15.2295 24.6966 17.8706 23.7019 19.963 22.0553C17.1161 19.8258 15.2639 16.2928 15.2639 12.3483Z" fill="#EB001B"/>
<path d="M39.9603 12.3483C39.9603 19.1741 34.4379 24.6966 27.612 24.6966C24.7308 24.6966 22.0897 23.7019 19.9973 22.0553C22.8786 19.7916 24.6965 16.2928 24.6965 12.3483C24.6965 8.40375 22.8442 4.905 19.9973 2.64109C22.0895 0.994688 24.7308 0 27.612 0C34.4379 0 39.9603 5.55672 39.9603 12.3483Z" fill="#F79E1B"/>
</g>
<defs>
<clipPath id="clip0_110_107">
<rect width="40" height="31.0938" fill="white"/>
</clipPath>
</defs>
</svg>
