<svg width="25" height="25" viewBox="0 0 25 25" fill="none" xmlns="http://www.w3.org/2000/svg">
<path d="M3.12516 21.4479L6.86475 17.7083H18.7502C19.3027 17.7083 19.8326 17.4888 20.2233 17.0981C20.614 16.7074 20.8335 16.1775 20.8335 15.625V6.25C20.8335 5.69747 20.614 5.16756 20.2233 4.77686C19.8326 4.38616 19.3027 4.16667 18.7502 4.16667H5.2085C4.65596 4.16667 4.12606 4.38616 3.73536 4.77686C3.34466 5.16756 3.12516 5.69747 3.12516 6.25V21.4479ZM3.12516 22.9167H2.0835V6.25C2.0835 5.4212 2.41274 4.62634 2.99879 4.04029C3.58484 3.45424 4.37969 3.125 5.2085 3.125H18.7502C19.579 3.125 20.3738 3.45424 20.9599 4.04029C21.5459 4.62634 21.8752 5.4212 21.8752 6.25V15.625C21.8752 16.4538 21.5459 17.2487 20.9599 17.8347C20.3738 18.4208 19.579 18.75 18.7502 18.75H7.29183L3.12516 22.9167ZM6.771 9.375C7.1854 9.375 7.58282 9.53962 7.87585 9.83265C8.16888 10.1257 8.3335 10.5231 8.3335 10.9375C8.3335 11.3519 8.16888 11.7493 7.87585 12.0424C7.58282 12.3354 7.1854 12.5 6.771 12.5C6.3566 12.5 5.95917 12.3354 5.66614 12.0424C5.37312 11.7493 5.2085 11.3519 5.2085 10.9375C5.2085 10.5231 5.37312 10.1257 5.66614 9.83265C5.95917 9.53962 6.3566 9.375 6.771 9.375ZM6.771 10.4167C6.63286 10.4167 6.50039 10.4715 6.40271 10.5692C6.30504 10.6669 6.25016 10.7994 6.25016 10.9375C6.25016 11.0756 6.30504 11.2081 6.40271 11.3058C6.50039 11.4035 6.63286 11.4583 6.771 11.4583C6.90913 11.4583 7.04161 11.4035 7.13928 11.3058C7.23696 11.2081 7.29183 11.0756 7.29183 10.9375C7.29183 10.7994 7.23696 10.6669 7.13928 10.5692C7.04161 10.4715 6.90913 10.4167 6.771 10.4167ZM11.9793 9.375C12.3937 9.375 12.7912 9.53962 13.0842 9.83265C13.3772 10.1257 13.5418 10.5231 13.5418 10.9375C13.5418 11.3519 13.3772 11.7493 13.0842 12.0424C12.7912 12.3354 12.3937 12.5 11.9793 12.5C11.5649 12.5 11.1675 12.3354 10.8745 12.0424C10.5814 11.7493 10.4168 11.3519 10.4168 10.9375C10.4168 10.5231 10.5814 10.1257 10.8745 9.83265C11.1675 9.53962 11.5649 9.375 11.9793 9.375ZM11.9793 10.4167C11.8412 10.4167 11.7087 10.4715 11.611 10.5692C11.5134 10.6669 11.4585 10.7994 11.4585 10.9375C11.4585 11.0756 11.5134 11.2081 11.611 11.3058C11.7087 11.4035 11.8412 11.4583 11.9793 11.4583C12.1175 11.4583 12.2499 11.4035 12.3476 11.3058C12.4453 11.2081 12.5002 11.0756 12.5002 10.9375C12.5002 10.7994 12.4453 10.6669 12.3476 10.5692C12.2499 10.4715 12.1175 10.4167 11.9793 10.4167ZM17.1877 9.375C17.6021 9.375 17.9995 9.53962 18.2925 9.83265C18.5855 10.1257 18.7502 10.5231 18.7502 10.9375C18.7502 11.3519 18.5855 11.7493 18.2925 12.0424C17.9995 12.3354 17.6021 12.5 17.1877 12.5C16.7733 12.5 16.3758 12.3354 16.0828 12.0424C15.7898 11.7493 15.6252 11.3519 15.6252 10.9375C15.6252 10.5231 15.7898 10.1257 16.0828 9.83265C16.3758 9.53962 16.7733 9.375 17.1877 9.375ZM17.1877 10.4167C17.0495 10.4167 16.9171 10.4715 16.8194 10.5692C16.7217 10.6669 16.6668 10.7994 16.6668 10.9375C16.6668 11.0756 16.7217 11.2081 16.8194 11.3058C16.9171 11.4035 17.0495 11.4583 17.1877 11.4583C17.3258 11.4583 17.4583 11.4035 17.5559 11.3058C17.6536 11.2081 17.7085 11.0756 17.7085 10.9375C17.7085 10.7994 17.6536 10.6669 17.5559 10.5692C17.4583 10.4715 17.3258 10.4167 17.1877 10.4167Z" fill="#777777"/>
</svg>
