<svg width="20" height="20" viewBox="0 0 20 20" fill="none" xmlns="http://www.w3.org/2000/svg">
<path d="M3.3335 8.021H18.3335L17.5507 16.6282C17.5084 17.094 17.2934 17.5273 16.9481 17.8428C16.6027 18.1583 16.1519 18.3333 15.6841 18.3335H5.98287C5.51509 18.3333 5.06428 18.1583 4.71893 17.8428C4.37358 17.5273 4.15864 17.094 4.11631 16.6282L3.3335 8.021Z" stroke="#403F3F" stroke-linejoin="round"/>
<path d="M7.0835 9.896V7.0835C7.0835 6.08893 7.47858 5.13511 8.18185 4.43185C8.88511 3.72858 9.83893 3.3335 10.8335 3.3335C11.8281 3.3335 12.7819 3.72858 13.4851 4.43185C14.1884 5.13511 14.5835 6.08893 14.5835 7.0835V9.896" stroke="#403F3F" stroke-linecap="round"/>
</svg>
