<svg width="26" height="26" viewBox="0 0 26 26" fill="none" xmlns="http://www.w3.org/2000/svg">
<path d="M12.9998 14.5165L16.1415 17.6582C16.3401 17.8568 16.5929 17.9561 16.8998 17.9561C17.2068 17.9561 17.4596 17.8568 17.6582 17.6582C17.8568 17.4596 17.9561 17.2068 17.9561 16.8998C17.9561 16.5929 17.8568 16.3401 17.6582 16.1415L14.5165 12.9998L17.6582 9.85817C17.8568 9.65956 17.9561 9.40678 17.9561 9.09984C17.9561 8.79289 17.8568 8.54011 17.6582 8.3415C17.4596 8.14289 17.2068 8.04359 16.8998 8.04359C16.5929 8.04359 16.3401 8.14289 16.1415 8.3415L12.9998 11.4832L9.85817 8.3415C9.65956 8.14289 9.40678 8.04359 9.09984 8.04359C8.79289 8.04359 8.54011 8.14289 8.3415 8.3415C8.14289 8.54011 8.04359 8.79289 8.04359 9.09984C8.04359 9.40678 8.14289 9.65956 8.3415 9.85817L11.4832 12.9998L8.3415 16.1415C8.14289 16.3401 8.04359 16.5929 8.04359 16.8998C8.04359 17.2068 8.14289 17.4596 8.3415 17.6582C8.54011 17.8568 8.79289 17.9561 9.09984 17.9561C9.40678 17.9561 9.65956 17.8568 9.85817 17.6582L12.9998 14.5165ZM12.9998 23.8332C11.5012 23.8332 10.0929 23.5486 8.77484 22.9795C7.45678 22.4104 6.31025 21.6387 5.33525 20.6644C4.36025 19.6894 3.58856 18.5429 3.02017 17.2248C2.45178 15.9068 2.16723 14.4984 2.1665 12.9998C2.1665 11.5012 2.45106 10.0929 3.02017 8.77484C3.58928 7.45678 4.36098 6.31025 5.33525 5.33525C6.31025 4.36025 7.45678 3.58856 8.77484 3.02017C10.0929 2.45178 11.5012 2.16723 12.9998 2.1665C14.4984 2.1665 15.9068 2.45106 17.2248 3.02017C18.5429 3.58928 19.6894 4.36098 20.6644 5.33525C21.6394 6.31025 22.4115 7.45678 22.9806 8.77484C23.5497 10.0929 23.8339 11.5012 23.8332 12.9998C23.8332 14.4984 23.5486 15.9068 22.9795 17.2248C22.4104 18.5429 21.6387 19.6894 20.6644 20.6644C19.6894 21.6394 18.5429 22.4115 17.2248 22.9806C15.9068 23.5497 14.4984 23.8339 12.9998 23.8332ZM12.9998 21.6665C15.4193 21.6665 17.4686 20.8269 19.1478 19.1478C20.8269 17.4686 21.6665 15.4193 21.6665 12.9998C21.6665 10.5804 20.8269 8.53109 19.1478 6.85192C17.4686 5.17275 15.4193 4.33317 12.9998 4.33317C10.5804 4.33317 8.53109 5.17275 6.85192 6.85192C5.17275 8.53109 4.33317 10.5804 4.33317 12.9998C4.33317 15.4193 5.17275 17.4686 6.85192 19.1478C8.53109 20.8269 10.5804 21.6665 12.9998 21.6665Z" fill="black"/>
</svg>
