<svg width="26" height="26" viewBox="0 0 26 26" fill="none" xmlns="http://www.w3.org/2000/svg">
<path d="M12.9998 2.1665C7.0415 2.1665 2.1665 7.0415 2.1665 12.9998C2.1665 18.9582 7.0415 23.8332 12.9998 23.8332C18.9582 23.8332 23.8332 18.9582 23.8332 12.9998C23.8332 7.0415 18.9582 2.1665 12.9998 2.1665ZM12.9998 21.6665C8.22234 21.6665 4.33317 17.7773 4.33317 12.9998C4.33317 8.22234 8.22234 4.33317 12.9998 4.33317C17.7773 4.33317 21.6665 8.22234 21.6665 12.9998C21.6665 17.7773 17.7773 21.6665 12.9998 21.6665ZM17.9723 8.2115L10.8332 15.3507L8.02734 12.5557L6.49984 14.0832L10.8332 18.4165L19.4998 9.74984L17.9723 8.2115Z" fill="black"/>
</svg>
