<svg width="26" height="26" viewBox="0 0 26 26" fill="none" xmlns="http://www.w3.org/2000/svg">
<path d="M20.5835 15.1668V6.50016C20.5835 5.3085 19.6085 4.3335 18.4168 4.3335H3.25016C2.0585 4.3335 1.0835 5.3085 1.0835 6.50016V15.1668C1.0835 16.3585 2.0585 17.3335 3.25016 17.3335H18.4168C19.6085 17.3335 20.5835 16.3585 20.5835 15.1668ZM18.4168 15.1668H3.25016V6.50016H18.4168V15.1668ZM10.8335 7.5835C9.03516 7.5835 7.5835 9.03516 7.5835 10.8335C7.5835 12.6318 9.03516 14.0835 10.8335 14.0835C12.6318 14.0835 14.0835 12.6318 14.0835 10.8335C14.0835 9.03516 12.6318 7.5835 10.8335 7.5835ZM24.9168 7.5835V19.5002C24.9168 20.6918 23.9418 21.6668 22.7502 21.6668H4.3335V19.5002H22.7502V7.5835H24.9168Z" fill="black"/>
</svg>
