<svg width="20" height="20" viewBox="0 0 20 20" fill="none" xmlns="http://www.w3.org/2000/svg">
<path d="M0.833496 2.71842C0.833496 2.19636 1.03051 1.69569 1.38121 1.32654C1.7319 0.957387 2.20754 0.75 2.7035 0.75H17.6635C18.1595 0.75 18.6351 0.957387 18.9858 1.32654C19.3365 1.69569 19.5335 2.19636 19.5335 2.71842V13.5447C19.5335 14.0668 19.3365 14.5675 18.9858 14.9366C18.6351 15.3058 18.1595 15.5132 17.6635 15.5132H11.1185V17.4816H13.9235C14.1715 17.4816 14.4093 17.5853 14.5846 17.7698C14.76 17.9544 14.8585 18.2048 14.8585 18.4658C14.8585 18.7268 14.76 18.9772 14.5846 19.1617C14.4093 19.3463 14.1715 19.45 13.9235 19.45H6.4435C6.19552 19.45 5.9577 19.3463 5.78235 19.1617C5.60701 18.9772 5.5085 18.7268 5.5085 18.4658C5.5085 18.2048 5.60701 17.9544 5.78235 17.7698C5.9577 17.5853 6.19552 17.4816 6.4435 17.4816H9.2485V15.5132H2.7035C2.20754 15.5132 1.7319 15.3058 1.38121 14.9366C1.03051 14.5675 0.833496 14.0668 0.833496 13.5447V2.71842ZM17.6635 13.5447V2.71842H2.7035V13.5447H17.6635Z" fill="#326BFF"/>
</svg>
