<svg width="25" height="25" viewBox="0 0 25 25" fill="none" xmlns="http://www.w3.org/2000/svg">
<path fill-rule="evenodd" clip-rule="evenodd" d="M7.71335 18.0805C11.2785 17.5597 13.7331 17.6045 17.3029 18.0988C17.5615 18.1362 17.7977 18.266 17.968 18.4641C18.1383 18.6621 18.2312 18.9151 18.2295 19.1764C18.2295 19.4264 18.1436 19.6691 17.9883 19.8587C17.7178 20.1892 17.4407 20.5143 17.1571 20.8337H18.5326C18.6191 20.7305 18.7061 20.6253 18.7941 20.5186C19.103 20.1397 19.2716 19.6657 19.2712 19.1769C19.2712 18.1222 18.5014 17.2133 17.4456 17.0675C13.7915 16.5618 11.2373 16.5133 7.56283 17.0503C6.49616 17.2061 5.72949 18.129 5.72949 19.191C5.72949 19.6623 5.88314 20.1284 6.17428 20.5061C6.26022 20.6175 6.34512 20.7269 6.42949 20.8342H7.77168C7.50784 20.5183 7.25049 20.1971 6.9998 19.8706C6.85083 19.6752 6.77046 19.4361 6.77116 19.1904C6.77116 18.6295 7.17428 18.1592 7.71335 18.0805ZM12.5003 13.0212C12.9107 13.0212 13.3171 12.9403 13.6962 12.7833C14.0754 12.6262 14.4199 12.3961 14.71 12.1059C15.0002 11.8157 15.2304 11.4712 15.3875 11.092C15.5445 10.7129 15.6253 10.3065 15.6253 9.89616C15.6253 9.48578 15.5445 9.07942 15.3875 8.70027C15.2304 8.32113 15.0002 7.97663 14.71 7.68645C14.4199 7.39627 14.0754 7.16608 13.6962 7.00904C13.3171 6.85199 12.9107 6.77116 12.5003 6.77116C11.6715 6.77116 10.8767 7.1004 10.2906 7.68645C9.70457 8.2725 9.37533 9.06736 9.37533 9.89616C9.37533 10.725 9.70457 11.5198 10.2906 12.1059C10.8767 12.6919 11.6715 13.0212 12.5003 13.0212ZM12.5003 14.0628C13.6054 14.0628 14.6652 13.6238 15.4466 12.8424C16.228 12.061 16.667 11.0012 16.667 9.89616C16.667 8.79109 16.228 7.73128 15.4466 6.94988C14.6652 6.16848 13.6054 5.72949 12.5003 5.72949C11.3953 5.72949 10.3354 6.16848 9.55405 6.94988C8.77265 7.73128 8.33366 8.79109 8.33366 9.89616C8.33366 11.0012 8.77265 12.061 9.55405 12.8424C10.3354 13.6238 11.3953 14.0628 12.5003 14.0628Z" fill="#777777"/>
<path fill-rule="evenodd" clip-rule="evenodd" d="M12.5002 21.8752C17.6778 21.8752 21.8752 17.6778 21.8752 12.5002C21.8752 7.32256 17.6778 3.12516 12.5002 3.12516C7.32256 3.12516 3.12516 7.32256 3.12516 12.5002C3.12516 17.6778 7.32256 21.8752 12.5002 21.8752ZM12.5002 22.9168C18.2533 22.9168 22.9168 18.2533 22.9168 12.5002C22.9168 6.74704 18.2533 2.0835 12.5002 2.0835C6.74704 2.0835 2.0835 6.74704 2.0835 12.5002C2.0835 18.2533 6.74704 22.9168 12.5002 22.9168Z" fill="#777777"/>
</svg>
