<svg width="20" height="20" viewBox="0 0 20 20" fill="none" xmlns="http://www.w3.org/2000/svg">
<path d="M9.95817 14.9998C10.2498 14.9998 10.4965 14.899 10.6982 14.6973C10.8998 14.4957 11.0004 14.2493 10.9998 13.9582C10.9998 13.6665 10.8993 13.4198 10.6982 13.2182C10.4971 13.0165 10.2504 12.9159 9.95817 12.9165C9.6665 12.9165 9.42011 13.0173 9.219 13.219C9.01789 13.4207 8.91706 13.6671 8.9165 13.9582C8.9165 14.2498 9.01734 14.4965 9.219 14.6982C9.42067 14.8998 9.66706 15.0004 9.95817 14.9998ZM9.99984 18.3332C8.84706 18.3332 7.76373 18.1143 6.74984 17.6765C5.73595 17.2387 4.854 16.6451 4.104 15.8957C3.354 15.1457 2.76039 14.2637 2.32317 13.2498C1.88595 12.2359 1.66706 11.1526 1.6665 9.99984C1.6665 8.84706 1.88539 7.76373 2.32317 6.74984C2.76095 5.73595 3.35456 4.854 4.104 4.104C4.854 3.354 5.73595 2.76039 6.74984 2.32317C7.76373 1.88595 8.84706 1.66706 9.99984 1.6665C11.1526 1.6665 12.2359 1.88539 13.2498 2.32317C14.2637 2.76095 15.1457 3.35456 15.8957 4.104C16.6457 4.854 17.2396 5.73595 17.6773 6.74984C18.1151 7.76373 18.3337 8.84706 18.3332 9.99984C18.3332 11.1526 18.1143 12.2359 17.6765 13.2498C17.2387 14.2637 16.6451 15.1457 15.8957 15.8957C15.1457 16.6457 14.2637 17.2396 13.2498 17.6773C12.2359 18.1151 11.1526 18.3337 9.99984 18.3332ZM9.99984 16.6665C11.8609 16.6665 13.4373 16.0207 14.729 14.729C16.0207 13.4373 16.6665 11.8609 16.6665 9.99984C16.6665 8.13873 16.0207 6.56234 14.729 5.27067C13.4373 3.979 11.8609 3.33317 9.99984 3.33317C8.13873 3.33317 6.56234 3.979 5.27067 5.27067C3.979 6.56234 3.33317 8.13873 3.33317 9.99984C3.33317 11.8609 3.979 13.4373 5.27067 14.729C6.56234 16.0207 8.13873 16.6665 9.99984 16.6665ZM10.0832 6.4165C10.4304 6.4165 10.7326 6.52762 10.9898 6.74984C11.2471 6.97206 11.3754 7.24984 11.3748 7.58317C11.3748 7.88873 11.2812 8.15956 11.094 8.39567C10.9068 8.63178 10.6948 8.854 10.4582 9.06234C10.1387 9.34012 9.85761 9.64567 9.61484 9.979C9.37206 10.3123 9.25039 10.6873 9.24984 11.104C9.24984 11.2984 9.32289 11.4618 9.469 11.594C9.61511 11.7262 9.78512 11.7921 9.979 11.7915C10.1873 11.7915 10.3646 11.7221 10.5107 11.5832C10.6568 11.4443 10.7504 11.2707 10.7915 11.0623C10.8471 10.7707 10.9721 10.5101 11.1665 10.2807C11.3609 10.0512 11.5693 9.83261 11.7915 9.62484C12.1109 9.31928 12.3854 8.98595 12.6148 8.62484C12.8443 8.26373 12.9587 7.86095 12.9582 7.4165C12.9582 6.70817 12.6698 6.12845 12.0932 5.67734C11.5165 5.22623 10.8465 5.00039 10.0832 4.99984C9.55539 4.99984 9.05206 5.11095 8.57317 5.33317C8.09428 5.55539 7.72956 5.89567 7.479 6.354C7.38178 6.52067 7.35039 6.69789 7.38484 6.88567C7.41928 7.07345 7.51317 7.21567 7.6665 7.31234C7.86095 7.42345 8.06234 7.45817 8.27067 7.4165C8.479 7.37484 8.65262 7.25678 8.7915 7.06234C8.94428 6.854 9.13539 6.69428 9.36484 6.58317C9.59428 6.47206 9.83373 6.4165 10.0832 6.4165Z" fill="#403F3F"/>
</svg>
