<svg width="20" height="20" viewBox="0 0 20 20" fill="none" xmlns="http://www.w3.org/2000/svg">
<g clip-path="url(#clip0_70_104)">
<path d="M10.0002 9.44428C10.7694 9.44428 11.5212 9.2162 12.1608 8.78889C12.8003 8.36157 13.2987 7.75421 13.5931 7.04361C13.8874 6.33301 13.9644 5.55108 13.8144 4.79671C13.6643 4.04234 13.2939 3.34941 12.7501 2.80553C12.2062 2.26166 11.5133 1.89128 10.7589 1.74123C10.0045 1.59118 9.22261 1.66819 8.512 1.96253C7.8014 2.25687 7.19404 2.75532 6.76672 3.39484C6.33941 4.03437 6.11133 4.78624 6.11133 5.55539C6.11133 6.58679 6.52105 7.57595 7.25036 8.30525C7.97967 9.03456 8.96882 9.44428 10.0002 9.44428ZM10.0002 2.77762C10.5496 2.77762 11.0867 2.94053 11.5435 3.24576C12.0003 3.55098 12.3563 3.98481 12.5665 4.49238C12.7768 4.99996 12.8318 5.55848 12.7246 6.09731C12.6174 6.63615 12.3529 7.1311 11.9644 7.51958C11.5759 7.90806 11.081 8.17262 10.5421 8.2798C10.0033 8.38698 9.44478 8.33197 8.93721 8.12173C8.42963 7.91148 7.99581 7.55545 7.69058 7.09864C7.38535 6.64184 7.22244 6.10479 7.22244 5.55539C7.22244 4.81868 7.5151 4.11214 8.03603 3.59121C8.55697 3.07027 9.2635 2.77762 10.0002 2.77762Z" fill="#403F3F"/>
<path d="M16.9278 13.5389C16.0369 12.5973 14.9633 11.8472 13.7726 11.3346C12.5819 10.822 11.2992 10.5576 10.0028 10.5576C8.70649 10.5576 7.42377 10.822 6.23309 11.3346C5.0424 11.8472 3.96877 12.5973 3.07783 13.5389C2.88467 13.7453 2.77739 14.0174 2.77783 14.3001V17.2223C2.77783 17.517 2.8949 17.7996 3.10327 18.0079C3.31164 18.2163 3.59426 18.3334 3.88894 18.3334H16.1112C16.4059 18.3334 16.6885 18.2163 16.8968 18.0079C17.1052 17.7996 17.2223 17.517 17.2223 17.2223V14.3001C17.2242 14.0182 17.119 13.7461 16.9278 13.5389ZM16.1112 17.2223H3.88894V14.2945C4.67629 13.4654 5.62411 12.8052 6.6747 12.3541C7.72529 11.903 8.8567 11.6703 10.0001 11.6703C11.1434 11.6703 12.2748 11.903 13.3254 12.3541C14.376 12.8052 15.3238 13.4654 16.1112 14.2945V17.2223Z" fill="#403F3F"/>
</g>
<defs>
<clipPath id="clip0_70_104">
<rect width="20" height="20" fill="white"/>
</clipPath>
</defs>
</svg>
