<svg width="22" height="22" viewBox="0 0 22 22" fill="none" xmlns="http://www.w3.org/2000/svg">
<path d="M12.1 8.98333C11.2734 8.98333 10.4807 9.3117 9.89618 9.89618C9.3117 10.4807 8.98333 11.2734 8.98333 12.1C8.98333 12.9266 9.3117 13.7193 9.89618 14.3038C10.4807 14.8883 11.2734 15.2167 12.1 15.2167C12.9266 15.2167 13.7193 14.8883 14.3038 14.3038C14.8883 13.7193 15.2167 12.9266 15.2167 12.1C15.2167 11.2734 14.8883 10.4807 14.3038 9.89618C13.7193 9.3117 12.9266 8.98333 12.1 8.98333ZM10.5417 12.1C10.5417 11.6867 10.7058 11.2903 10.9981 10.9981C11.2903 10.7058 11.6867 10.5417 12.1 10.5417C12.5133 10.5417 12.9097 10.7058 13.2019 10.9981C13.4942 11.2903 13.6583 11.6867 13.6583 12.1C13.6583 12.5133 13.4942 12.9097 13.2019 13.2019C12.9097 13.4942 12.5133 13.6583 12.1 13.6583C11.6867 13.6583 11.2903 13.4942 10.9981 13.2019C10.7058 12.9097 10.5417 12.5133 10.5417 12.1ZM12.1 2.75C10.8721 2.75 9.6563 2.99184 8.52191 3.46173C7.38752 3.93161 6.35678 4.62032 5.48855 5.48855C4.62032 6.35678 3.93161 7.38752 3.46173 8.52191C2.99184 9.6563 2.75 10.8721 2.75 12.1C2.75 13.3279 2.99184 14.5437 3.46173 15.6781C3.93161 16.8125 4.62032 17.8432 5.48855 18.7114C6.35678 19.5797 7.38752 20.2684 8.52191 20.7383C9.6563 21.2082 10.8721 21.45 12.1 21.45C14.5798 21.45 16.958 20.4649 18.7114 18.7114C20.4649 16.958 21.45 14.5798 21.45 12.1C21.45 9.62023 20.4649 7.24202 18.7114 5.48855C16.958 3.73509 14.5798 2.75 12.1 2.75ZM4.30833 12.1C4.30833 10.0335 5.12924 8.05168 6.59046 6.59046C8.05168 5.12924 10.0335 4.30833 12.1 4.30833C14.1665 4.30833 16.1483 5.12924 17.6095 6.59046C19.0708 8.05168 19.8917 10.0335 19.8917 12.1C19.8917 14.1665 19.0708 16.1483 17.6095 17.6095C16.1483 19.0708 14.1665 19.8917 12.1 19.8917C10.0335 19.8917 8.05168 19.0708 6.59046 17.6095C5.12924 16.1483 4.30833 14.1665 4.30833 12.1Z" fill="#326BFF"/>
</svg>
