<svg width="40" height="13" viewBox="0 0 40 13" fill="none" xmlns="http://www.w3.org/2000/svg">
<g clip-path="url(#clip0_110_105)">
<path d="M20.687 4.12949C20.6642 5.92887 22.2906 6.93293 23.5158 7.52996C24.7745 8.14246 25.1973 8.53527 25.1923 9.08309C25.183 9.92137 24.1883 10.2914 23.2575 10.3057C21.6336 10.3309 20.6894 9.8673 19.9388 9.51668L19.3538 12.254C20.1069 12.6011 21.5014 12.9037 22.9475 12.917C26.342 12.917 28.5628 11.2414 28.5748 8.6434C28.5881 5.34621 24.0142 5.16371 24.0455 3.68996C24.0563 3.24309 24.4827 2.76621 25.417 2.64496C25.8795 2.58371 27.1562 2.53684 28.6037 3.2034L29.1719 0.554961C28.3934 0.271523 27.393 0.000117302 26.1473 0.000117302C22.9523 0.000117302 20.7052 1.69855 20.687 4.12949ZM34.6309 0.228242C34.0111 0.228242 33.4888 0.589805 33.2556 1.14465L28.4067 12.7225H31.7987L32.4738 10.857H36.6188L37.0103 12.7225H40L37.3911 0.228242H34.6309ZM35.1055 3.6034L36.0844 8.29512H33.4034L35.1055 3.6034ZM16.5744 0.228398L13.9006 12.7223H17.133L19.8055 0.228086H16.5744M11.7927 0.228086L8.42828 8.7323L7.06734 1.50152C6.90766 0.694336 6.27703 0.228242 5.57672 0.228242H0.0770312L0 0.591055C1.12906 0.836055 2.41188 1.23121 3.18906 1.65402C3.66469 1.9123 3.80031 2.13809 3.95656 2.75184L6.53422 12.7225H9.95L15.1869 0.228242L11.7927 0.228086Z" fill="url(#paint0_linear_110_105)"/>
</g>
<defs>
<linearGradient id="paint0_linear_110_105" x1="1838.96" y1="38.8282" x2="1876.35" y2="-1287.75" gradientUnits="userSpaceOnUse">
<stop stop-color="#222357"/>
<stop offset="1" stop-color="#254AA5"/>
</linearGradient>
<clipPath id="clip0_110_105">
<rect width="40" height="12.9688" fill="white"/>
</clipPath>
</defs>
</svg>
